STARTFONT 2.1
FONT -Linotype-Times-Medium-R-Normal--12-120-72-72-P-62-ISO8859-1
SIZE 12 72 72
FONTBOUNDINGBOX 15 16 -3 -3

STARTPROPERTIES 22
FONTNAME_REGISTRY "-"
FOUNDRY "Linotype"
FAMILY_NAME "Times"
WEIGHT_NAME "Medium"
SLANT "R"
SETWIDTH_NAME "Normal"
ADD_STYLE_NAME ""
PIXEL_SIZE 12
POINT_SIZE 120
RESOLUTION_X 72
RESOLUTION_Y 72
SPACING "P"
CHARSET_REGISTRY "ISO8859"
CHARSET_ENCODING "1"
FULL_NAME "Times-Roman"
AVERAGE_WIDTH 62
WEIGHT 10
X_HEIGHT 6
QUAD_WIDTH 6
DEFAULT_CHAR 32
FONT_DESCENT 3
FONT_ASCENT 11
ENDPROPERTIES

CHARS 190

STARTCHAR space
ENCODING 32
SWIDTH 250 0
DWIDTH 3 0
BBX 1 1 0 0
BITMAP
00
ENDCHAR

STARTCHAR exclam
ENCODING 33
SWIDTH 333 0
DWIDTH 4 0
BBX 1 9 2 0
BITMAP
80
80
80
80
80
80
80
00
80
ENDCHAR

STARTCHAR quotedbl
ENCODING 34
SWIDTH 408 0
DWIDTH 5 0
BBX 3 3 1 6
BITMAP
A0
A0
A0
ENDCHAR

STARTCHAR numbersign
ENCODING 35
SWIDTH 500 0
DWIDTH 6 0
BBX 6 9 0 0
BITMAP
28
28
28
FC
50
FC
50
50
50
ENDCHAR

STARTCHAR dollar
ENCODING 36
SWIDTH 500 0
DWIDTH 6 0
BBX 5 11 1 -1
BITMAP
20
78
A8
A8
60
30
28
A8
A8
F0
20
ENDCHAR

STARTCHAR percent
ENCODING 37
SWIDTH 833 0
DWIDTH 10 0
BBX 9 9 1 0
BITMAP
7200
9E00
9400
9400
EB80
1480
1480
2480
4700
ENDCHAR

STARTCHAR ampersand
ENCODING 38
SWIDTH 778 0
DWIDTH 9 0
BBX 10 9 0 0
BITMAP
1C00
2400
2400
3B80
7100
9A00
8C00
8640
7B80
ENDCHAR

STARTCHAR quoteright
ENCODING 39
SWIDTH 333 0
DWIDTH 4 0
BBX 2 3 2 6
BITMAP
C0
40
80
ENDCHAR

STARTCHAR parenleft
ENCODING 40
SWIDTH 333 0
DWIDTH 4 0
BBX 3 11 1 -2
BITMAP
20
40
40
80
80
80
80
80
40
40
20
ENDCHAR

STARTCHAR parenright
ENCODING 41
SWIDTH 333 0
DWIDTH 4 0
BBX 3 11 0 -2
BITMAP
80
40
40
20
20
20
20
20
40
40
80
ENDCHAR

STARTCHAR asterisk
ENCODING 42
SWIDTH 500 0
DWIDTH 6 0
BBX 5 5 1 3
BITMAP
20
A8
70
A8
20
ENDCHAR

STARTCHAR plus
ENCODING 43
SWIDTH 564 0
DWIDTH 7 0
BBX 7 7 0 0
BITMAP
10
10
10
FE
10
10
10
ENDCHAR

STARTCHAR comma
ENCODING 44
SWIDTH 250 0
DWIDTH 3 0
BBX 2 3 1 -2
BITMAP
C0
40
80
ENDCHAR

STARTCHAR minus
ENCODING 45
SWIDTH 564 0
DWIDTH 7 0
BBX 6 1 0 3
BITMAP
FC
ENDCHAR

STARTCHAR period
ENCODING 46
SWIDTH 250 0
DWIDTH 3 0
BBX 1 1 1 0
BITMAP
80
ENDCHAR

STARTCHAR slash
ENCODING 47
SWIDTH 278 0
DWIDTH 3 0
BBX 4 11 0 -2
BITMAP
10
10
10
20
20
20
40
40
40
80
80
ENDCHAR

STARTCHAR zero
ENCODING 48
SWIDTH 500 0
DWIDTH 6 0
BBX 5 9 1 0
BITMAP
70
50
88
88
88
88
88
50
70
ENDCHAR

STARTCHAR one
ENCODING 49
SWIDTH 500 0
DWIDTH 6 0
BBX 3 9 2 0
BITMAP
C0
40
40
40
40
40
40
40
E0
ENDCHAR

STARTCHAR two
ENCODING 50
SWIDTH 500 0
DWIDTH 6 0
BBX 6 9 0 0
BITMAP
70
88
88
08
08
10
20
44
F8
ENDCHAR

STARTCHAR three
ENCODING 51
SWIDTH 500 0
DWIDTH 6 0
BBX 4 9 1 0
BITMAP
60
90
10
60
30
10
10
10
E0
ENDCHAR

STARTCHAR four
ENCODING 52
SWIDTH 500 0
DWIDTH 6 0
BBX 5 9 0 0
BITMAP
10
30
10
50
50
90
F8
10
10
ENDCHAR

STARTCHAR five
ENCODING 53
SWIDTH 500 0
DWIDTH 6 0
BBX 4 9 1 0
BITMAP
70
40
80
E0
30
10
10
10
E0
ENDCHAR

STARTCHAR six
ENCODING 54
SWIDTH 500 0
DWIDTH 6 0
BBX 5 9 1 0
BITMAP
18
20
40
C0
F0
88
88
88
70
ENDCHAR

STARTCHAR seven
ENCODING 55
SWIDTH 500 0
DWIDTH 6 0
BBX 6 9 1 0
BITMAP
7C
84
08
08
10
10
10
20
20
ENDCHAR

STARTCHAR eight
ENCODING 56
SWIDTH 500 0
DWIDTH 6 0
BBX 5 9 0 0
BITMAP
70
88
C8
50
30
58
88
88
70
ENDCHAR

STARTCHAR nine
ENCODING 57
SWIDTH 500 0
DWIDTH 6 0
BBX 5 9 0 0
BITMAP
70
88
88
88
88
78
10
20
C0
ENDCHAR

STARTCHAR colon
ENCODING 58
SWIDTH 278 0
DWIDTH 3 0
BBX 2 6 1 0
BITMAP
C0
00
00
00
00
C0
ENDCHAR

STARTCHAR semicolon
ENCODING 59
SWIDTH 278 0
DWIDTH 3 0
BBX 2 8 1 -2
BITMAP
C0
00
00
00
00
C0
40
80
ENDCHAR

STARTCHAR less
ENCODING 60
SWIDTH 564 0
DWIDTH 7 0
BBX 6 6 0 0
BITMAP
0C
30
C0
C0
30
0C
ENDCHAR

STARTCHAR equal
ENCODING 61
SWIDTH 564 0
DWIDTH 7 0
BBX 6 4 0 1
BITMAP
FC
00
00
FC
ENDCHAR

STARTCHAR greater
ENCODING 62
SWIDTH 564 0
DWIDTH 7 0
BBX 6 6 0 0
BITMAP
C0
30
0C
0C
30
C0
ENDCHAR

STARTCHAR question
ENCODING 63
SWIDTH 444 0
DWIDTH 5 0
BBX 4 9 1 0
BITMAP
60
90
90
10
10
20
20
00
20
ENDCHAR

STARTCHAR at
ENCODING 64
SWIDTH 921 0
DWIDTH 11 0
BBX 10 11 0 -2
BITMAP
1F00
2080
4F40
5140
9340
A240
A240
A680
BB00
4000
3E00
ENDCHAR

STARTCHAR A
ENCODING 65
SWIDTH 722 0
DWIDTH 9 0
BBX 8 9 0 0
BITMAP
10
10
18
28
24
3C
42
42
E7
ENDCHAR

STARTCHAR B
ENCODING 66
SWIDTH 667 0
DWIDTH 8 0
BBX 7 9 0 0
BITMAP
FC
42
42
42
7C
42
42
42
FC
ENDCHAR

STARTCHAR C
ENCODING 67
SWIDTH 667 0
DWIDTH 8 0
BBX 7 9 1 0
BITMAP
3E
42
82
80
80
80
80
42
3C
ENDCHAR

STARTCHAR D
ENCODING 68
SWIDTH 722 0
DWIDTH 9 0
BBX 8 9 0 0
BITMAP
FC
42
41
41
41
41
41
42
FC
ENDCHAR

STARTCHAR E
ENCODING 69
SWIDTH 611 0
DWIDTH 7 0
BBX 7 9 0 0
BITMAP
FE
42
40
44
7C
44
40
42
FE
ENDCHAR

STARTCHAR F
ENCODING 70
SWIDTH 556 0
DWIDTH 7 0
BBX 7 9 0 0
BITMAP
FE
42
40
44
7C
44
40
40
E0
ENDCHAR

STARTCHAR G
ENCODING 71
SWIDTH 722 0
DWIDTH 9 0
BBX 8 9 0 0
BITMAP
3E
42
82
80
87
82
82
42
3C
ENDCHAR

STARTCHAR H
ENCODING 72
SWIDTH 722 0
DWIDTH 9 0
BBX 8 9 0 0
BITMAP
E7
42
42
42
7E
42
42
42
E7
ENDCHAR

STARTCHAR I
ENCODING 73
SWIDTH 333 0
DWIDTH 4 0
BBX 3 9 1 0
BITMAP
E0
40
40
40
40
40
40
40
E0
ENDCHAR

STARTCHAR J
ENCODING 74
SWIDTH 389 0
DWIDTH 5 0
BBX 4 9 0 0
BITMAP
70
20
20
20
20
20
20
20
C0
ENDCHAR

STARTCHAR K
ENCODING 75
SWIDTH 722 0
DWIDTH 9 0
BBX 8 9 0 0
BITMAP
EE
44
48
70
50
48
44
42
E7
ENDCHAR

STARTCHAR L
ENCODING 76
SWIDTH 611 0
DWIDTH 7 0
BBX 7 9 0 0
BITMAP
E0
40
40
40
40
40
42
42
FE
ENDCHAR

STARTCHAR M
ENCODING 77
SWIDTH 889 0
DWIDTH 11 0
BBX 10 9 0 0
BITMAP
C0C0
6180
6180
5280
5280
4C80
4C80
4C80
E1C0
ENDCHAR

STARTCHAR N
ENCODING 78
SWIDTH 722 0
DWIDTH 9 0
BBX 8 9 0 0
BITMAP
C7
62
62
52
5A
4A
46
46
E2
ENDCHAR

STARTCHAR O
ENCODING 79
SWIDTH 722 0
DWIDTH 9 0
BBX 7 9 1 0
BITMAP
38
44
82
82
82
82
82
44
38
ENDCHAR

STARTCHAR P
ENCODING 80
SWIDTH 556 0
DWIDTH 7 0
BBX 6 9 0 0
BITMAP
F8
44
44
44
78
40
40
40
E0
ENDCHAR

STARTCHAR Q
ENCODING 81
SWIDTH 722 0
DWIDTH 9 0
BBX 7 11 1 -2
BITMAP
38
44
82
82
82
82
82
44
38
18
0E
ENDCHAR

STARTCHAR R
ENCODING 82
SWIDTH 667 0
DWIDTH 8 0
BBX 7 9 0 0
BITMAP
F8
44
44
44
78
50
48
44
E2
ENDCHAR

STARTCHAR S
ENCODING 83
SWIDTH 556 0
DWIDTH 7 0
BBX 5 9 1 0
BITMAP
78
88
88
C0
20
18
88
88
F0
ENDCHAR

STARTCHAR T
ENCODING 84
SWIDTH 611 0
DWIDTH 7 0
BBX 7 9 0 0
BITMAP
FE
92
10
10
10
10
10
10
38
ENDCHAR

STARTCHAR U
ENCODING 85
SWIDTH 722 0
DWIDTH 9 0
BBX 8 9 0 0
BITMAP
E7
42
42
42
42
42
42
42
3C
ENDCHAR

STARTCHAR V
ENCODING 86
SWIDTH 722 0
DWIDTH 9 0
BBX 8 9 0 0
BITMAP
E3
41
42
22
24
14
14
08
08
ENDCHAR

STARTCHAR W
ENCODING 87
SWIDTH 944 0
DWIDTH 11 0
BBX 11 9 0 0
BITMAP
EE60
4420
4440
2240
2680
2A80
1100
1100
1100
ENDCHAR

STARTCHAR X
ENCODING 88
SWIDTH 722 0
DWIDTH 9 0
BBX 8 9 0 0
BITMAP
E7
42
24
18
18
24
42
42
E7
ENDCHAR

STARTCHAR Y
ENCODING 89
SWIDTH 722 0
DWIDTH 9 0
BBX 7 9 1 0
BITMAP
E6
44
24
28
38
10
10
10
38
ENDCHAR

STARTCHAR Z
ENCODING 90
SWIDTH 611 0
DWIDTH 7 0
BBX 7 9 0 0
BITMAP
7E
82
84
08
10
20
42
82
FE
ENDCHAR

STARTCHAR bracketleft
ENCODING 91
SWIDTH 333 0
DWIDTH 4 0
BBX 3 11 1 -2
BITMAP
E0
80
80
80
80
80
80
80
80
80
E0
ENDCHAR

STARTCHAR backslash
ENCODING 92
SWIDTH 278 0
DWIDTH 3 0
BBX 5 9 0 0
BITMAP
80
40
40
20
20
10
10
08
08
ENDCHAR

STARTCHAR bracketright
ENCODING 93
SWIDTH 333 0
DWIDTH 4 0
BBX 3 11 0 -2
BITMAP
E0
20
20
20
20
20
20
20
20
20
E0
ENDCHAR

STARTCHAR asciicircum
ENCODING 94
SWIDTH 469 0
DWIDTH 6 0
BBX 5 5 0 4
BITMAP
20
50
50
88
88
ENDCHAR

STARTCHAR underscore
ENCODING 95
SWIDTH 500 0
DWIDTH 6 0
BBX 6 1 0 -2
BITMAP
FC
ENDCHAR

STARTCHAR quoteleft
ENCODING 96
SWIDTH 333 0
DWIDTH 4 0
BBX 2 3 1 6
BITMAP
40
80
C0
ENDCHAR

STARTCHAR a
ENCODING 97
SWIDTH 444 0
DWIDTH 5 0
BBX 5 6 0 0
BITMAP
70
90
30
D0
90
F8
ENDCHAR

STARTCHAR b
ENCODING 98
SWIDTH 500 0
DWIDTH 6 0
BBX 6 9 0 0
BITMAP
C0
40
40
78
44
44
44
44
78
ENDCHAR

STARTCHAR c
ENCODING 99
SWIDTH 444 0
DWIDTH 5 0
BBX 4 6 1 0
BITMAP
70
90
80
80
90
60
ENDCHAR

STARTCHAR d
ENCODING 100
SWIDTH 500 0
DWIDTH 6 0
BBX 6 9 0 0
BITMAP
18
08
08
78
88
88
88
88
7C
ENDCHAR

STARTCHAR e
ENCODING 101
SWIDTH 444 0
DWIDTH 5 0
BBX 4 6 1 0
BITMAP
60
90
F0
80
90
60
ENDCHAR

STARTCHAR f
ENCODING 102
SWIDTH 333 0
DWIDTH 4 0
BBX 4 9 0 0
BITMAP
30
40
40
E0
40
40
40
40
E0
ENDCHAR

STARTCHAR g
ENCODING 103
SWIDTH 500 0
DWIDTH 6 0
BBX 5 9 0 -3
BITMAP
78
90
90
60
80
78
88
88
F0
ENDCHAR

STARTCHAR h
ENCODING 104
SWIDTH 500 0
DWIDTH 6 0
BBX 6 9 0 0
BITMAP
C0
40
40
58
68
48
48
48
EC
ENDCHAR

STARTCHAR i
ENCODING 105
SWIDTH 278 0
DWIDTH 3 0
BBX 3 9 0 0
BITMAP
40
00
00
C0
40
40
40
40
E0
ENDCHAR

STARTCHAR j
ENCODING 106
SWIDTH 278 0
DWIDTH 3 0
BBX 3 12 0 -3
BITMAP
20
00
00
60
20
20
20
20
20
20
20
C0
ENDCHAR

STARTCHAR k
ENCODING 107
SWIDTH 500 0
DWIDTH 6 0
BBX 6 9 0 0
BITMAP
40
C0
40
48
50
60
50
48
CC
ENDCHAR

STARTCHAR l
ENCODING 108
SWIDTH 278 0
DWIDTH 3 0
BBX 3 9 0 0
BITMAP
C0
40
40
40
40
40
40
40
E0
ENDCHAR

STARTCHAR m
ENCODING 109
SWIDTH 778 0
DWIDTH 9 0
BBX 9 6 0 0
BITMAP
DB00
6D00
4900
4900
4900
ED80
ENDCHAR

STARTCHAR n
ENCODING 110
SWIDTH 500 0
DWIDTH 6 0
BBX 6 6 0 0
BITMAP
D8
68
48
48
48
EC
ENDCHAR

STARTCHAR o
ENCODING 111
SWIDTH 500 0
DWIDTH 6 0
BBX 5 6 1 0
BITMAP
70
88
88
88
88
70
ENDCHAR

STARTCHAR p
ENCODING 112
SWIDTH 500 0
DWIDTH 6 0
BBX 6 9 0 -3
BITMAP
F8
44
44
44
44
78
40
40
E0
ENDCHAR

STARTCHAR q
ENCODING 113
SWIDTH 500 0
DWIDTH 6 0
BBX 6 9 0 -3
BITMAP
78
88
88
88
88
78
08
08
1C
ENDCHAR

STARTCHAR r
ENCODING 114
SWIDTH 333 0
DWIDTH 4 0
BBX 4 6 0 0
BITMAP
B0
40
40
40
40
E0
ENDCHAR

STARTCHAR s
ENCODING 115
SWIDTH 389 0
DWIDTH 5 0
BBX 3 6 1 0
BITMAP
E0
80
40
20
A0
E0
ENDCHAR

STARTCHAR t
ENCODING 116
SWIDTH 278 0
DWIDTH 3 0
BBX 3 8 0 0
BITMAP
40
40
E0
40
40
40
40
60
ENDCHAR

STARTCHAR u
ENCODING 117
SWIDTH 500 0
DWIDTH 6 0
BBX 6 6 0 0
BITMAP
D8
48
48
48
58
6C
ENDCHAR

STARTCHAR v
ENCODING 118
SWIDTH 500 0
DWIDTH 6 0
BBX 5 6 0 0
BITMAP
C8
48
50
30
20
20
ENDCHAR

STARTCHAR w
ENCODING 119
SWIDTH 722 0
DWIDTH 9 0
BBX 8 6 0 0
BITMAP
DB
49
4A
3A
24
24
ENDCHAR

STARTCHAR x
ENCODING 120
SWIDTH 500 0
DWIDTH 6 0
BBX 6 6 0 0
BITMAP
CC
48
30
30
48
CC
ENDCHAR

STARTCHAR y
ENCODING 121
SWIDTH 500 0
DWIDTH 6 0
BBX 6 9 0 -3
BITMAP
CC
48
48
28
30
10
20
20
C0
ENDCHAR

STARTCHAR z
ENCODING 122
SWIDTH 444 0
DWIDTH 5 0
BBX 5 6 0 0
BITMAP
F8
90
20
40
88
F8
ENDCHAR

STARTCHAR braceleft
ENCODING 123
SWIDTH 480 0
DWIDTH 6 0
BBX 3 11 1 -2
BITMAP
60
40
40
40
40
80
40
40
40
40
60
ENDCHAR

STARTCHAR bar
ENCODING 124
SWIDTH 200 0
DWIDTH 2 0
BBX 1 9 1 0
BITMAP
80
80
80
80
80
80
80
80
80
ENDCHAR

STARTCHAR braceright
ENCODING 125
SWIDTH 480 0
DWIDTH 6 0
BBX 3 11 2 -2
BITMAP
C0
40
40
40
40
20
40
40
40
40
C0
ENDCHAR

STARTCHAR asciitilde
ENCODING 126
SWIDTH 541 0
DWIDTH 6 0
BBX 6 2 0 3
BITMAP
64
98
ENDCHAR

STARTCHAR exclamdown
ENCODING 161
SWIDTH 333 0
DWIDTH 4 0
BBX 1 9 2 -3
BITMAP
80
00
80
80
80
80
80
80
80
ENDCHAR

STARTCHAR cent
ENCODING 162
SWIDTH 500 0
DWIDTH 6 0
BBX 4 9 1 -2
BITMAP
10
70
90
A0
A0
A0
70
40
40
ENDCHAR

STARTCHAR sterling
ENCODING 163
SWIDTH 500 0
DWIDTH 6 0
BBX 6 9 1 0
BITMAP
38
40
40
40
E0
40
40
C4
B8
ENDCHAR

STARTCHAR currency
ENCODING 164
SWIDTH 500 0
DWIDTH 6 0
BBX 6 7 0 1
BITMAP
B4
48
84
84
84
48
B4
ENDCHAR

STARTCHAR yen
ENCODING 165
SWIDTH 500 0
DWIDTH 6 0
BBX 7 9 0 0
BITMAP
E6
44
28
7C
10
7C
10
10
38
ENDCHAR

STARTCHAR brokenbar
ENCODING 166
SWIDTH 200 0
DWIDTH 2 0
BBX 1 9 1 0
BITMAP
80
80
80
00
00
00
80
80
80
ENDCHAR

STARTCHAR section
ENCODING 167
SWIDTH 500 0
DWIDTH 6 0
BBX 5 11 0 -2
BITMAP
70
88
C8
A0
90
88
48
28
98
88
70
ENDCHAR

STARTCHAR dieresis
ENCODING 168
SWIDTH 333 0
DWIDTH 4 0
BBX 3 1 1 6
BITMAP
A0
ENDCHAR

STARTCHAR copyright
ENCODING 169
SWIDTH 760 0
DWIDTH 9 0
BBX 9 9 0 0
BITMAP
3E00
4100
9E80
A280
A080
A280
9C80
4100
3E00
ENDCHAR

STARTCHAR ordfeminine
ENCODING 170
SWIDTH 276 0
DWIDTH 3 0
BBX 4 5 0 4
BITMAP
E0
20
60
E0
F0
ENDCHAR

STARTCHAR guillemotleft
ENCODING 171
SWIDTH 500 0
DWIDTH 6 0
BBX 6 5 0 0
BITMAP
24
48
90
48
24
ENDCHAR

STARTCHAR logicalnot
ENCODING 172
SWIDTH 564 0
DWIDTH 7 0
BBX 6 3 0 1
BITMAP
FC
04
04
ENDCHAR

STARTCHAR hyphen
ENCODING 173
SWIDTH 333 0
DWIDTH 4 0
BBX 3 1 0 2
BITMAP
E0
ENDCHAR

STARTCHAR registered
ENCODING 174
SWIDTH 760 0
DWIDTH 9 0
BBX 9 9 0 0
BITMAP
3E00
4100
BC80
9480
9880
9480
B280
4100
3E00
ENDCHAR

STARTCHAR macron
ENCODING 175
SWIDTH 333 0
DWIDTH 4 0
BBX 4 1 0 6
BITMAP
F0
ENDCHAR

STARTCHAR degree
ENCODING 176
SWIDTH 400 0
DWIDTH 6 0
BBX 4 4 1 5
BITMAP
60
90
90
60
ENDCHAR

STARTCHAR plusminus
ENCODING 177
SWIDTH 564 0
DWIDTH 7 0
BBX 7 8 0 0
BITMAP
10
10
10
FE
10
10
10
FE
ENDCHAR

STARTCHAR twosuperior
ENCODING 178
SWIDTH 300 0
DWIDTH 4 0
BBX 3 5 -3 4
BITMAP
E0
20
40
80
E0
ENDCHAR

STARTCHAR threesuperior
ENCODING 179
SWIDTH 300 0
DWIDTH 4 0
BBX 3 5 -3 4
BITMAP
E0
20
40
20
E0
ENDCHAR

STARTCHAR acute
ENCODING 180
SWIDTH 333 0
DWIDTH 4 0
BBX 3 2 1 7
BITMAP
60
80
ENDCHAR

STARTCHAR mu
ENCODING 181
SWIDTH 500 0
DWIDTH 6 0
BBX 6 8 0 -2
BITMAP
D8
48
48
48
58
6C
40
40
ENDCHAR

STARTCHAR paragraph
ENCODING 182
SWIDTH 453 0
DWIDTH 5 0
BBX 5 12 0 -3
BITMAP
78
E8
E8
E8
E8
68
28
28
28
28
28
28
ENDCHAR

STARTCHAR periodcentered
ENCODING 183
SWIDTH 250 0
DWIDTH 6 0
BBX 1 1 3 3
BITMAP
80
ENDCHAR

STARTCHAR cedilla
ENCODING 184
SWIDTH 333 0
DWIDTH 4 0
BBX 3 3 0 -3
BITMAP
40
20
E0
ENDCHAR

STARTCHAR onesuperior
ENCODING 185
SWIDTH 300 0
DWIDTH 4 0
BBX 3 5 -3 4
BITMAP
C0
40
40
40
E0
ENDCHAR

STARTCHAR ordmasculine
ENCODING 186
SWIDTH 310 0
DWIDTH 4 0
BBX 4 5 0 4
BITMAP
60
90
60
00
F0
ENDCHAR

STARTCHAR guillemotright
ENCODING 187
SWIDTH 500 0
DWIDTH 6 0
BBX 6 5 0 0
BITMAP
90
48
24
48
90
ENDCHAR

STARTCHAR onequarter
ENCODING 188
SWIDTH 750 0
DWIDTH 9 0
BBX 9 9 3 0
BITMAP
C200
4400
4400
4800
E900
1300
2500
2780
4100
ENDCHAR

STARTCHAR onehalf
ENCODING 189
SWIDTH 750 0
DWIDTH 9 0
BBX 8 9 3 0
BITMAP
C2
44
44
48
F7
11
22
24
47
ENDCHAR

STARTCHAR threequarters
ENCODING 190
SWIDTH 750 0
DWIDTH 9 0
BBX 9 9 3 0
BITMAP
E200
2400
4400
2800
E900
1300
2500
2780
4100
ENDCHAR

STARTCHAR questiondown
ENCODING 191
SWIDTH 444 0
DWIDTH 5 0
BBX 4 9 1 -3
BITMAP
40
00
40
40
80
80
90
90
60
ENDCHAR

STARTCHAR Agrave
ENCODING 192
SWIDTH 722 0
DWIDTH 9 0
BBX 8 12 0 0
BITMAP
30
10
00
10
10
18
28
24
7C
42
42
C7
ENDCHAR

STARTCHAR Aacute
ENCODING 193
SWIDTH 722 0
DWIDTH 9 0
BBX 8 12 0 0
BITMAP
18
10
00
10
10
18
28
24
3C
42
42
C7
ENDCHAR

STARTCHAR Acircumflex
ENCODING 194
SWIDTH 722 0
DWIDTH 9 0
BBX 8 12 0 0
BITMAP
10
28
00
10
10
18
28
24
3C
42
42
C7
ENDCHAR

STARTCHAR Atilde
ENCODING 195
SWIDTH 722 0
DWIDTH 9 0
BBX 8 12 0 0
BITMAP
14
28
00
10
10
18
28
24
3C
42
42
C7
ENDCHAR

STARTCHAR Adieresis
ENCODING 196
SWIDTH 722 0
DWIDTH 9 0
BBX 8 11 0 0
BITMAP
28
00
10
10
18
28
24
3C
42
42
C7
ENDCHAR

STARTCHAR Aring
ENCODING 197
SWIDTH 722 0
DWIDTH 9 0
BBX 8 13 0 0
BITMAP
10
28
10
00
10
10
18
28
24
3C
42
42
C7
ENDCHAR

STARTCHAR AE
ENCODING 198
SWIDTH 889 0
DWIDTH 11 0
BBX 10 9 0 0
BITMAP
1FC0
0C40
1400
1480
2780
3C80
4400
4440
EFC0
ENDCHAR

STARTCHAR Ccedilla
ENCODING 199
SWIDTH 667 0
DWIDTH 8 0
BBX 7 12 1 -3
BITMAP
3E
42
82
80
80
80
80
42
3C
10
08
38
ENDCHAR

STARTCHAR Egrave
ENCODING 200
SWIDTH 611 0
DWIDTH 7 0
BBX 7 12 0 0
BITMAP
30
10
00
FE
42
40
44
7C
44
40
42
FE
ENDCHAR

STARTCHAR Eacute
ENCODING 201
SWIDTH 611 0
DWIDTH 7 0
BBX 7 12 0 0
BITMAP
18
10
00
FE
42
40
44
7C
44
40
42
FE
ENDCHAR

STARTCHAR Ecircumflex
ENCODING 202
SWIDTH 611 0
DWIDTH 7 0
BBX 7 12 0 0
BITMAP
18
24
00
FE
42
40
44
7C
44
40
42
FE
ENDCHAR

STARTCHAR Edieresis
ENCODING 203
SWIDTH 611 0
DWIDTH 7 0
BBX 7 11 0 0
BITMAP
28
00
FE
42
40
44
7C
44
40
42
FE
ENDCHAR

STARTCHAR Igrave
ENCODING 204
SWIDTH 333 0
DWIDTH 4 0
BBX 3 12 1 0
BITMAP
C0
40
00
E0
40
40
40
40
40
40
40
E0
ENDCHAR

STARTCHAR Iacute
ENCODING 205
SWIDTH 333 0
DWIDTH 4 0
BBX 3 12 1 0
BITMAP
60
40
00
E0
40
40
40
40
40
40
40
E0
ENDCHAR

STARTCHAR Icircumflex
ENCODING 206
SWIDTH 333 0
DWIDTH 4 0
BBX 3 12 1 0
BITMAP
40
A0
00
E0
40
40
40
40
40
40
40
E0
ENDCHAR

STARTCHAR Idieresis
ENCODING 207
SWIDTH 333 0
DWIDTH 4 0
BBX 3 11 1 0
BITMAP
A0
00
E0
40
40
40
40
40
40
40
E0
ENDCHAR

STARTCHAR Eth
ENCODING 208
SWIDTH 722 0
DWIDTH 9 0
BBX 8 9 0 0
BITMAP
FC
42
41
41
F1
41
41
42
FC
ENDCHAR

STARTCHAR Ntilde
ENCODING 209
SWIDTH 722 0
DWIDTH 9 0
BBX 8 12 0 0
BITMAP
14
28
00
C7
62
62
52
5A
4A
46
46
E2
ENDCHAR

STARTCHAR Ograve
ENCODING 210
SWIDTH 722 0
DWIDTH 9 0
BBX 7 12 1 0
BITMAP
30
10
00
38
44
82
82
82
82
82
44
38
ENDCHAR

STARTCHAR Oacute
ENCODING 211
SWIDTH 722 0
DWIDTH 9 0
BBX 7 12 1 0
BITMAP
18
10
00
38
44
82
82
82
82
82
44
38
ENDCHAR

STARTCHAR Ocircumflex
ENCODING 212
SWIDTH 722 0
DWIDTH 9 0
BBX 7 12 1 0
BITMAP
10
28
00
38
44
82
82
82
82
82
44
38
ENDCHAR

STARTCHAR Otilde
ENCODING 213
SWIDTH 722 0
DWIDTH 9 0
BBX 7 12 1 0
BITMAP
34
58
00
38
44
82
82
82
82
82
44
38
ENDCHAR

STARTCHAR Odieresis
ENCODING 214
SWIDTH 722 0
DWIDTH 9 0
BBX 7 11 1 0
BITMAP
28
00
38
44
82
82
82
82
82
44
38
ENDCHAR

STARTCHAR multiply
ENCODING 215
SWIDTH 564 0
DWIDTH 7 0
BBX 5 5 1 1
BITMAP
88
50
20
50
88
ENDCHAR

STARTCHAR Oslash
ENCODING 216
SWIDTH 722 0
DWIDTH 9 0
BBX 8 10 1 0
BITMAP
01
3A
44
8A
8A
92
A2
A2
44
B8
ENDCHAR

STARTCHAR Ugrave
ENCODING 217
SWIDTH 722 0
DWIDTH 9 0
BBX 8 12 0 0
BITMAP
18
08
00
E7
42
42
42
42
42
42
42
3C
ENDCHAR

STARTCHAR Uacute
ENCODING 218
SWIDTH 722 0
DWIDTH 9 0
BBX 8 12 0 0
BITMAP
0C
08
00
E7
42
42
42
42
42
42
42
3C
ENDCHAR

STARTCHAR Ucircumflex
ENCODING 219
SWIDTH 722 0
DWIDTH 9 0
BBX 8 12 0 0
BITMAP
18
24
00
E7
42
42
42
42
42
42
42
3C
ENDCHAR

STARTCHAR Udieresis
ENCODING 220
SWIDTH 722 0
DWIDTH 9 0
BBX 8 11 0 0
BITMAP
14
00
E7
42
42
42
42
42
42
42
3C
ENDCHAR

STARTCHAR Yacute
ENCODING 221
SWIDTH 722 0
DWIDTH 9 0
BBX 7 12 1 0
BITMAP
18
10
00
E6
42
24
24
38
10
10
10
38
ENDCHAR

STARTCHAR Thorn
ENCODING 222
SWIDTH 556 0
DWIDTH 7 0
BBX 6 9 0 0
BITMAP
E0
40
78
44
44
44
78
40
E0
ENDCHAR

STARTCHAR germandbls
ENCODING 223
SWIDTH 500 0
DWIDTH 6 0
BBX 6 9 0 0
BITMAP
38
44
44
58
44
44
44
54
D8
ENDCHAR

STARTCHAR agrave
ENCODING 224
SWIDTH 444 0
DWIDTH 5 0
BBX 5 9 0 0
BITMAP
60
20
00
70
90
30
D0
90
F8
ENDCHAR

STARTCHAR aacute
ENCODING 225
SWIDTH 444 0
DWIDTH 5 0
BBX 5 9 0 0
BITMAP
30
20
00
70
90
30
D0
90
F8
ENDCHAR

STARTCHAR acircumflex
ENCODING 226
SWIDTH 444 0
DWIDTH 5 0
BBX 5 9 0 0
BITMAP
60
90
00
70
90
30
D0
90
F8
ENDCHAR

STARTCHAR atilde
ENCODING 227
SWIDTH 444 0
DWIDTH 5 0
BBX 5 9 0 0
BITMAP
50
A0
00
70
90
30
D0
90
F8
ENDCHAR

STARTCHAR adieresis
ENCODING 228
SWIDTH 444 0
DWIDTH 5 0
BBX 5 8 0 0
BITMAP
50
00
70
90
30
D0
90
F8
ENDCHAR

STARTCHAR aring
ENCODING 229
SWIDTH 444 0
DWIDTH 5 0
BBX 5 10 0 0
BITMAP
20
50
20
00
70
90
30
D0
90
F8
ENDCHAR

STARTCHAR ae
ENCODING 230
SWIDTH 667 0
DWIDTH 8 0
BBX 7 6 1 0
BITMAP
6C
92
3E
D0
92
EC
ENDCHAR

STARTCHAR ccedilla
ENCODING 231
SWIDTH 444 0
DWIDTH 5 0
BBX 4 9 1 -3
BITMAP
70
80
80
80
90
60
40
20
E0
ENDCHAR

STARTCHAR egrave
ENCODING 232
SWIDTH 444 0
DWIDTH 5 0
BBX 4 9 1 0
BITMAP
60
20
00
60
90
F0
80
90
60
ENDCHAR

STARTCHAR eacute
ENCODING 233
SWIDTH 444 0
DWIDTH 5 0
BBX 4 9 1 0
BITMAP
30
20
00
60
90
F0
80
90
60
ENDCHAR

STARTCHAR ecircumflex
ENCODING 234
SWIDTH 444 0
DWIDTH 5 0
BBX 4 9 1 0
BITMAP
60
90
00
60
90
F0
80
90
60
ENDCHAR

STARTCHAR edieresis
ENCODING 235
SWIDTH 444 0
DWIDTH 5 0
BBX 4 8 1 0
BITMAP
50
00
60
90
F0
80
90
60
ENDCHAR

STARTCHAR igrave
ENCODING 236
SWIDTH 278 0
DWIDTH 3 0
BBX 3 9 0 0
BITMAP
C0
40
00
C0
40
40
40
40
E0
ENDCHAR

STARTCHAR iacute
ENCODING 237
SWIDTH 278 0
DWIDTH 3 0
BBX 3 9 0 0
BITMAP
60
40
00
C0
40
40
40
40
E0
ENDCHAR

STARTCHAR icircumflex
ENCODING 238
SWIDTH 278 0
DWIDTH 3 0
BBX 3 9 1 0
BITMAP
40
A0
00
C0
40
40
40
40
E0
ENDCHAR

STARTCHAR idieresis
ENCODING 239
SWIDTH 278 0
DWIDTH 3 0
BBX 3 8 0 0
BITMAP
A0
00
C0
40
40
40
40
E0
ENDCHAR

STARTCHAR eth
ENCODING 240
SWIDTH 500 0
DWIDTH 6 0
BBX 5 9 0 0
BITMAP
D0
20
D0
78
88
88
88
88
70
ENDCHAR

STARTCHAR ntilde
ENCODING 241
SWIDTH 500 0
DWIDTH 6 0
BBX 6 9 0 0
BITMAP
28
50
00
D8
68
48
48
48
EC
ENDCHAR

STARTCHAR ograve
ENCODING 242
SWIDTH 500 0
DWIDTH 6 0
BBX 5 9 1 0
BITMAP
60
20
00
70
88
88
88
88
70
ENDCHAR

STARTCHAR oacute
ENCODING 243
SWIDTH 500 0
DWIDTH 6 0
BBX 5 9 1 0
BITMAP
30
20
00
70
88
88
88
88
70
ENDCHAR

STARTCHAR ocircumflex
ENCODING 244
SWIDTH 500 0
DWIDTH 6 0
BBX 5 9 1 0
BITMAP
20
50
00
70
88
88
88
88
70
ENDCHAR

STARTCHAR otilde
ENCODING 245
SWIDTH 500 0
DWIDTH 6 0
BBX 5 9 1 0
BITMAP
68
B0
00
70
88
88
88
88
70
ENDCHAR

STARTCHAR odieresis
ENCODING 246
SWIDTH 500 0
DWIDTH 6 0
BBX 5 8 1 0
BITMAP
50
00
70
88
88
88
88
70
ENDCHAR

STARTCHAR divide
ENCODING 247
SWIDTH 564 0
DWIDTH 7 0
BBX 5 5 1 1
BITMAP
20
00
F8
00
20
ENDCHAR

STARTCHAR oslash
ENCODING 248
SWIDTH 500 0
DWIDTH 6 0
BBX 5 7 1 0
BITMAP
08
70
98
A8
A8
C8
F0
ENDCHAR

STARTCHAR ugrave
ENCODING 249
SWIDTH 500 0
DWIDTH 6 0
BBX 6 9 0 0
BITMAP
60
20
00
D8
48
48
48
58
6C
ENDCHAR

STARTCHAR uacute
ENCODING 250
SWIDTH 500 0
DWIDTH 6 0
BBX 6 9 0 0
BITMAP
18
10
00
D8
48
48
48
58
6C
ENDCHAR

STARTCHAR ucircumflex
ENCODING 251
SWIDTH 500 0
DWIDTH 6 0
BBX 6 9 0 0
BITMAP
30
48
00
D8
48
48
48
58
6C
ENDCHAR

STARTCHAR udieresis
ENCODING 252
SWIDTH 500 0
DWIDTH 6 0
BBX 6 8 0 0
BITMAP
48
00
D8
48
48
48
58
6C
ENDCHAR

STARTCHAR yacute
ENCODING 253
SWIDTH 500 0
DWIDTH 6 0
BBX 6 12 0 -3
BITMAP
18
10
00
CC
48
48
28
30
10
20
20
C0
ENDCHAR

STARTCHAR thorn
ENCODING 254
SWIDTH 500 0
DWIDTH 6 0
BBX 6 12 0 -3
BITMAP
C0
40
40
78
44
44
44
44
78
40
40
E0
ENDCHAR

STARTCHAR ydieresis
ENCODING 255
SWIDTH 500 0
DWIDTH 6 0
BBX 6 11 0 -3
BITMAP
48
00
CC
48
48
28
30
10
20
20
C0
ENDCHAR
ENDFONT
